{
  "accessors": [
    {
      "bufferView": 2,
      "componentType": 5126,
      "count": 4481,
      "max": [
        82.55760192871094,
        68.26229858398438,
        93.65579986572266
      ],
      "min": [
        -82.55760192871094,
        -128.4178009033203,
        -4.6585001945495605
      ],
      "type": "VEC3"
    },
    {
      "bufferView": 2,
      "byteOffset": 53772,
      "componentType": 5126,
      "count": 4481,
      "max": [
        0.9999203681945801,
        0.9999908208847046,
        0.9999969005584717
      ],
      "min": [
        -0.9999203681945801,
        -0.9999594688415527,
        -0.9999768733978271
      ],
      "type": "VEC3"
    },
    {
      "bufferView": 1,
      "componentType": 5126,
      "count": 4481,
      "max": [
        0.9966999888420105,
        0.9980000257492065
      ],
      "min": [
        0.006599999964237213,
        0.007600000128149986
      ],
      "type": "VEC2"
    },
    {
      "bufferView": 0,
      "componentType": 5125,
      "count": 20322,
      "type": "SCALAR"
    }
  ],
  "asset": {
    "extras": {
      "author": "Mathzilla92828383 (https://sketchfab.com/Mathzilla92828383)",
      "license": "CC-BY-4.0 (http://creativecommons.org/licenses/by/4.0/)",
      "source": "https://sketchfab.com/3d-models/fallout-centaur-f6298023832c4f78ad9c9be76dc1f0b5",
      "title": "Fallout centaur"
    },
    "generator": "Sketchfab-15.27.0",
    "version": "2.0"
  },
  "bufferViews": [
    {
      "buffer": 0,
      "byteLength": 81288,
      "name": "floatBufferViews",
      "target": 34963
    },
    {
      "buffer": 0,
      "byteLength": 35848,
      "byteOffset": 81288,
      "byteStride": 8,
      "name": "floatBufferViews",
      "target": 34962
    },
    {
      "buffer": 0,
      "byteLength": 107544,
      "byteOffset": 117136,
      "byteStride": 12,
      "name": "floatBufferViews",
      "target": 34962
    }
  ],
  "buffers": [
    {
      "byteLength": 224680,
      "uri": "scene.bin"
    }
  ],
  "images": [
    {
      "uri": "textures/Material_000001_baseColor.png"
    }
  ],
  "materials": [
    {
      "doubleSided": true,
      "name": "Material_000001",
      "pbrMetallicRoughness": {
        "baseColorTexture": {
          "index": 0
        },
        "metallicFactor": 0.0,
        "roughnessFactor": 0.6
      }
    }
  ],
  "meshes": [
    {
      "name": "Object_0",
      "primitives": [
        {
          "attributes": {
            "NORMAL": 1,
            "POSITION": 0,
            "TEXCOORD_0": 2
          },
          "indices": 3,
          "material": 0,
          "mode": 4
        }
      ]
    }
  ],
  "nodes": [
    {
      "children": [
        1
      ],
      "matrix": [
        1.0,
        0.0,
        0.0,
        0.0,
        0.0,
        2.220446049250313e-16,
        -1.0,
        0.0,
        0.0,
        1.0,
        2.220446049250313e-16,
        0.0,
        0.0,
        0.0,
        0.0,
        1.0
      ],
      "name": "Sketchfab_model"
    },
    {
      "children": [
        2
      ],
      "name": "centaur.obj.cleaner.materialmerger.gles"
    },
    {
      "mesh": 0,
      "name": "Object_2"
    }
  ],
  "samplers": [
    {
      "magFilter": 9729,
      "minFilter": 9987,
      "wrapS": 10497,
      "wrapT": 10497
    }
  ],
  "scene": 0,
  "scenes": [
    {
      "name": "Sketchfab_Scene",
      "nodes": [
        0
      ]
    }
  ],
  "textures": [
    {
      "sampler": 0,
      "source": 0
    }
  ]
}
