{
  "accessors": [
    {
      "bufferView": 3,
      "componentType": 5126,
      "count": 449,
      "max": [
        42.77654266357422,
        1.3773269653320313,
        2.794210910797119
      ],
      "min": [
        -42.77654266357422,
        -14.714000701904297,
        -2.794210910797119
      ],
      "type": "VEC3"
    },
    {
      "bufferView": 3,
      "byteOffset": 5388,
      "componentType": 5126,
      "count": 449,
      "max": [
        0.9989109635353088,
        0.9950633645057678,
        1.0
      ],
      "min": [
        -0.9989109635353088,
        -0.9726549386978149,
        -1.0
      ],
      "type": "VEC3"
    },
    {
      "bufferView": 2,
      "componentType": 5126,
      "count": 449,
      "max": [
        0.9922419786453247,
        0.9394670128822327
      ],
      "min": [
        0.006688999943435192,
        0.04650599882006645
      ],
      "type": "VEC2"
    },
    {
      "bufferView": 1,
      "componentType": 5125,
      "count": 1530,
      "type": "SCALAR"
    },
    {
      "bufferView": 3,
      "byteOffset": 10776,
      "componentType": 5126,
      "count": 24,
      "max": [
        -12.180912017822266,
        -2.9478302001953125,
        0.23460383713245392
      ],
      "min": [
        -13.462879180908203,
        -5.845260143280029,
        -0.23460383713245392
      ],
      "type": "VEC3"
    },
    {
      "bufferView": 3,
      "byteOffset": 11064,
      "componentType": 5126,
      "count": 24,
      "max": [
        0.9604130983352661,
        0.9138075113296509,
        0.9575801491737366
      ],
      "min": [
        -0.9915839433670044,
        -0.9964408278465271,
        -0.9575801491737366
      ],
      "type": "VEC3"
    },
    {
      "bufferView": 2,
      "byteOffset": 3592,
      "componentType": 5126,
      "count": 24,
      "max": [
        0.7105669975280762,
        0.8010500073432922
      ],
      "min": [
        0.7023969888687134,
        0.7028819918632507
      ],
      "type": "VEC2"
    },
    {
      "bufferView": 1,
      "byteOffset": 6120,
      "componentType": 5125,
      "count": 132,
      "type": "SCALAR"
    },
    {
      "bufferView": 3,
      "byteOffset": 11352,
      "componentType": 5126,
      "count": 16,
      "max": [
        26.10479736328125,
        -0.9565820693969727,
        2.082899808883667
      ],
      "min": [
        9.21851634979248,
        -4.564266204833984,
        -2.082899808883667
      ],
      "type": "VEC3"
    },
    {
      "bufferView": 3,
      "byteOffset": 11544,
      "componentType": 5126,
      "count": 16,
      "max": [
        0.8028486371040344,
        0.9275751709938049,
        0.9922552704811096
      ],
      "min": [
        -0.8028485178947449,
        -0.9275753498077393,
        -0.9922552704811096
      ],
      "type": "VEC3"
    },
    {
      "bufferView": 2,
      "byteOffset": 3784,
      "componentType": 5126,
      "count": 16,
      "max": [
        0.7934759855270386,
        0.8393319845199585
      ],
      "min": [
        0.6130149960517883,
        0.6463819742202759
      ],
      "type": "VEC2"
    },
    {
      "bufferView": 1,
      "byteOffset": 6648,
      "componentType": 5125,
      "count": 84,
      "type": "SCALAR"
    },
    {
      "bufferView": 5,
      "componentType": 5126,
      "count": 4,
      "max": [
        1.0,
        0.0,
        0.0,
        0.0,
        0.0,
        1.0,
        0.0,
        0.0,
        0.0,
        0.0,
        1.0,
        0.0,
        34.336151123046875,
        6.854970932006836,
        0.0,
        1.0
      ],
      "min": [
        1.0,
        0.0,
        0.0,
        0.0,
        0.0,
        1.0,
        0.0,
        0.0,
        0.0,
        0.0,
        1.0,
        0.0,
        -16.829683303833008,
        0.0,
        0.0,
        1.0
      ],
      "type": "MAT4"
    },
    {
      "bufferView": 0,
      "componentType": 5123,
      "count": 449,
      "type": "VEC4"
    },
    {
      "bufferView": 4,
      "componentType": 5126,
      "count": 449,
      "max": [
        1.0,
        0.0,
        0.0,
        0.0
      ],
      "min": [
        1.0,
        0.0,
        0.0,
        0.0
      ],
      "type": "VEC4"
    },
    {
      "bufferView": 0,
      "byteOffset": 3592,
      "componentType": 5123,
      "count": 24,
      "type": "VEC4"
    },
    {
      "bufferView": 4,
      "byteOffset": 7184,
      "componentType": 5126,
      "count": 24,
      "max": [
        1.0,
        0.0,
        0.0,
        0.0
      ],
      "min": [
        1.0,
        0.0,
        0.0,
        0.0
      ],
      "type": "VEC4"
    },
    {
      "bufferView": 0,
      "byteOffset": 3784,
      "componentType": 5123,
      "count": 16,
      "type": "VEC4"
    },
    {
      "bufferView": 4,
      "byteOffset": 7568,
      "componentType": 5126,
      "count": 16,
      "max": [
        1.0,
        0.0,
        0.0,
        0.0
      ],
      "min": [
        1.0,
        0.0,
        0.0,
        0.0
      ],
      "type": "VEC4"
    },
    {
      "bufferView": 6,
      "componentType": 5126,
      "count": 21,
      "max": [
        1.0416666269302368
      ],
      "min": [
        0.0416666679084301
      ],
      "type": "SCALAR"
    },
    {
      "bufferView": 8,
      "componentType": 5126,
      "count": 21,
      "max": [
        0.0,
        0.0,
        0.0,
        1.0
      ],
      "min": [
        0.0,
        0.0,
        -0.12221579998731613,
        0.9925035238265991
      ],
      "type": "VEC4"
    },
    {
      "bufferView": 6,
      "byteOffset": 84,
      "componentType": 5126,
      "count": 20,
      "max": [
        1.0416666269302368
      ],
      "min": [
        0.0416666679084301
      ],
      "type": "SCALAR"
    },
    {
      "bufferView": 7,
      "componentType": 5126,
      "count": 20,
      "max": [
        55.28125,
        4.234042644500732,
        0.0
      ],
      "min": [
        51.165836334228516,
        4.234042644500732,
        0.0
      ],
      "type": "VEC3"
    },
    {
      "bufferView": 6,
      "byteOffset": 164,
      "componentType": 5126,
      "count": 8,
      "max": [
        1.0416666269302368
      ],
      "min": [
        0.0416666679084301
      ],
      "type": "SCALAR"
    },
    {
      "bufferView": 8,
      "byteOffset": 336,
      "componentType": 5126,
      "count": 8,
      "max": [
        0.0,
        0.0,
        1.3877787807814457e-17,
        1.0
      ],
      "min": [
        0.0,
        0.0,
        -3.469446951953614e-18,
        1.0
      ],
      "type": "VEC4"
    },
    {
      "bufferView": 6,
      "byteOffset": 196,
      "componentType": 5126,
      "count": 32,
      "max": [
        1.0416666269302368
      ],
      "min": [
        0.0416666679084301
      ],
      "type": "SCALAR"
    },
    {
      "bufferView": 7,
      "byteOffset": 240,
      "componentType": 5126,
      "count": 32,
      "max": [
        -31.897052764892578,
        -6.854970932006836,
        0.0
      ],
      "min": [
        -35.47660827636719,
        -6.854970932006836,
        0.0
      ],
      "type": "VEC3"
    },
    {
      "bufferView": 6,
      "byteOffset": 324,
      "componentType": 5126,
      "count": 15,
      "max": [
        1.0416666269302368
      ],
      "min": [
        0.0416666679084301
      ],
      "type": "SCALAR"
    },
    {
      "bufferView": 8,
      "byteOffset": 464,
      "componentType": 5126,
      "count": 15,
      "max": [
        0.0,
        0.0,
        0.08072105050086975,
        1.0
      ],
      "min": [
        0.0,
        0.0,
        0.0,
        0.9967367053031921
      ],
      "type": "VEC4"
    },
    {
      "bufferView": 6,
      "byteOffset": 384,
      "componentType": 5126,
      "count": 19,
      "max": [
        2.9166667461395264
      ],
      "min": [
        1.0833333730697632
      ],
      "type": "SCALAR"
    },
    {
      "bufferView": 8,
      "byteOffset": 704,
      "componentType": 5126,
      "count": 19,
      "max": [
        0.0,
        0.0,
        8.326672684688674e-17,
        1.0
      ],
      "min": [
        0.0,
        0.0,
        -5.551115123125783e-17,
        1.0
      ],
      "type": "VEC4"
    },
    {
      "bufferView": 6,
      "byteOffset": 460,
      "componentType": 5126,
      "count": 22,
      "max": [
        2.9166667461395264
      ],
      "min": [
        1.0833333730697632
      ],
      "type": "SCALAR"
    },
    {
      "bufferView": 7,
      "byteOffset": 624,
      "componentType": 5126,
      "count": 22,
      "max": [
        58.4240608215332,
        4.234042644500732,
        0.0
      ],
      "min": [
        49.17435836791992,
        4.234042644500732,
        0.0
      ],
      "type": "VEC3"
    },
    {
      "bufferView": 6,
      "byteOffset": 548,
      "componentType": 5126,
      "count": 19,
      "max": [
        2.9166667461395264
      ],
      "min": [
        1.0833333730697632
      ],
      "type": "SCALAR"
    },
    {
      "bufferView": 8,
      "byteOffset": 1008,
      "componentType": 5126,
      "count": 19,
      "max": [
        0.0,
        0.0,
        8.326672684688674e-17,
        1.0
      ],
      "min": [
        0.0,
        0.0,
        -5.551115123125783e-17,
        1.0
      ],
      "type": "VEC4"
    },
    {
      "bufferView": 6,
      "byteOffset": 624,
      "componentType": 5126,
      "count": 89,
      "max": [
        2.9166667461395264
      ],
      "min": [
        1.0833333730697632
      ],
      "type": "SCALAR"
    },
    {
      "bufferView": 7,
      "byteOffset": 888,
      "componentType": 5126,
      "count": 89,
      "max": [
        -31.897052764892578,
        3.5585172176361084,
        0.0
      ],
      "min": [
        -31.897052764892578,
        -6.854970932006836,
        0.0
      ],
      "type": "VEC3"
    },
    {
      "bufferView": 6,
      "byteOffset": 980,
      "componentType": 5126,
      "count": 89,
      "max": [
        2.9166667461395264
      ],
      "min": [
        1.0833333730697632
      ],
      "type": "SCALAR"
    },
    {
      "bufferView": 8,
      "byteOffset": 1312,
      "componentType": 5126,
      "count": 89,
      "max": [
        0.0,
        0.0,
        0.411023885011673,
        1.0
      ],
      "min": [
        0.0,
        0.0,
        0.0,
        0.911624550819397
      ],
      "type": "VEC4"
    },
    {
      "bufferView": 6,
      "byteOffset": 1336,
      "componentType": 5126,
      "count": 1,
      "max": [
        2.9583332538604736
      ],
      "min": [
        2.9583332538604736
      ],
      "type": "SCALAR"
    },
    {
      "bufferView": 7,
      "byteOffset": 1956,
      "componentType": 5126,
      "count": 1,
      "max": [
        -31.897052764892578,
        -6.854970932006836,
        0.0
      ],
      "min": [
        -31.897052764892578,
        -6.854970932006836,
        0.0
      ],
      "type": "VEC3"
    },
    {
      "bufferView": 6,
      "byteOffset": 1340,
      "componentType": 5126,
      "count": 1,
      "max": [
        2.9583332538604736
      ],
      "min": [
        2.9583332538604736
      ],
      "type": "SCALAR"
    },
    {
      "bufferView": 8,
      "byteOffset": 2736,
      "componentType": 5126,
      "count": 1,
      "max": [
        0.0,
        0.0,
        0.0,
        1.0
      ],
      "min": [
        0.0,
        0.0,
        0.0,
        1.0
      ],
      "type": "VEC4"
    }
  ],
  "animations": [
    {
      "channels": [
        {
          "sampler": 0,
          "target": {
            "node": 15,
            "path": "rotation"
          }
        },
        {
          "sampler": 1,
          "target": {
            "node": 16,
            "path": "translation"
          }
        },
        {
          "sampler": 2,
          "target": {
            "node": 16,
            "path": "rotation"
          }
        },
        {
          "sampler": 3,
          "target": {
            "node": 14,
            "path": "translation"
          }
        },
        {
          "sampler": 4,
          "target": {
            "node": 14,
            "path": "rotation"
          }
        }
      ],
      "name": "Aim_Shot",
      "samplers": [
        {
          "input": 19,
          "interpolation": "LINEAR",
          "output": 20
        },
        {
          "input": 21,
          "interpolation": "LINEAR",
          "output": 22
        },
        {
          "input": 23,
          "interpolation": "LINEAR",
          "output": 24
        },
        {
          "input": 25,
          "interpolation": "LINEAR",
          "output": 26
        },
        {
          "input": 27,
          "interpolation": "LINEAR",
          "output": 28
        }
      ]
    },
    {
      "channels": [
        {
          "sampler": 0,
          "target": {
            "node": 15,
            "path": "rotation"
          }
        },
        {
          "sampler": 1,
          "target": {
            "node": 16,
            "path": "translation"
          }
        },
        {
          "sampler": 2,
          "target": {
            "node": 16,
            "path": "rotation"
          }
        },
        {
          "sampler": 3,
          "target": {
            "node": 14,
            "path": "translation"
          }
        },
        {
          "sampler": 4,
          "target": {
            "node": 14,
            "path": "rotation"
          }
        }
      ],
      "name": "Reload",
      "samplers": [
        {
          "input": 29,
          "interpolation": "LINEAR",
          "output": 30
        },
        {
          "input": 31,
          "interpolation": "LINEAR",
          "output": 32
        },
        {
          "input": 33,
          "interpolation": "LINEAR",
          "output": 34
        },
        {
          "input": 35,
          "interpolation": "LINEAR",
          "output": 36
        },
        {
          "input": 37,
          "interpolation": "LINEAR",
          "output": 38
        }
      ]
    },
    {
      "channels": [
        {
          "sampler": 0,
          "target": {
            "node": 14,
            "path": "translation"
          }
        },
        {
          "sampler": 1,
          "target": {
            "node": 14,
            "path": "rotation"
          }
        }
      ],
      "name": "No_Animation",
      "samplers": [
        {
          "input": 39,
          "interpolation": "LINEAR",
          "output": 40
        },
        {
          "input": 41,
          "interpolation": "LINEAR",
          "output": 42
        }
      ]
    }
  ],
  "asset": {
    "extras": {
      "author": "Brocagames (https://sketchfab.com/Brocagames)",
      "license": "CC-BY-4.0 (http://creativecommons.org/licenses/by/4.0/)",
      "source": "https://sketchfab.com/3d-models/shotgun-low-poly-rigg-52c0593f63314bfe9a5027511ffb84fc",
      "title": "Shotgun Low Poly Rigg"
    },
    "generator": "Sketchfab-15.77.0",
    "version": "2.0"
  },
  "bufferViews": [
    {
      "buffer": 0,
      "byteLength": 3912,
      "byteStride": 8,
      "name": "shortBufferViews",
      "target": 34962
    },
    {
      "buffer": 0,
      "byteLength": 6984,
      "byteOffset": 3912,
      "name": "floatBufferViews",
      "target": 34963
    },
    {
      "buffer": 0,
      "byteLength": 3912,
      "byteOffset": 10896,
      "byteStride": 8,
      "name": "floatBufferViews",
      "target": 34962
    },
    {
      "buffer": 0,
      "byteLength": 11736,
      "byteOffset": 14808,
      "byteStride": 12,
      "name": "floatBufferViews",
      "target": 34962
    },
    {
      "buffer": 0,
      "byteLength": 7824,
      "byteOffset": 26544,
      "byteStride": 16,
      "name": "floatBufferViews",
      "target": 34962
    },
    {
      "buffer": 0,
      "byteLength": 256,
      "byteOffset": 34368,
      "name": "floatBufferViews"
    },
    {
      "buffer": 0,
      "byteLength": 1344,
      "byteOffset": 34624,
      "name": "floatBufferViews"
    },
    {
      "buffer": 0,
      "byteLength": 1968,
      "byteOffset": 35968,
      "byteStride": 12,
      "name": "floatBufferViews"
    },
    {
      "buffer": 0,
      "byteLength": 2752,
      "byteOffset": 37936,
      "byteStride": 16,
      "name": "floatBufferViews"
    }
  ],
  "buffers": [
    {
      "byteLength": 40688,
      "uri": "scene.bin"
    }
  ],
  "images": [
    {
      "uri": "textures/standardSurface3_baseColor.jpeg"
    }
  ],
  "materials": [
    {
      "doubleSided": true,
      "name": "standardSurface3",
      "pbrMetallicRoughness": {
        "baseColorTexture": {
          "index": 0
        },
        "metallicFactor": 0.0,
        "roughnessFactor": 0.6
      }
    }
  ],
  "meshes": [
    {
      "name": "Main_Body_standardSurface3_0",
      "primitives": [
        {
          "attributes": {
            "JOINTS_0": 13,
            "NORMAL": 1,
            "POSITION": 0,
            "TEXCOORD_0": 2,
            "WEIGHTS_0": 14
          },
          "indices": 3,
          "material": 0,
          "mode": 4
        }
      ]
    },
    {
      "name": "Trigger_standardSurface3_0",
      "primitives": [
        {
          "attributes": {
            "JOINTS_0": 15,
            "NORMAL": 5,
            "POSITION": 4,
            "TEXCOORD_0": 6,
            "WEIGHTS_0": 16
          },
          "indices": 7,
          "material": 0,
          "mode": 4
        }
      ]
    },
    {
      "name": "Forend_standardSurface3_0",
      "primitives": [
        {
          "attributes": {
            "JOINTS_0": 17,
            "NORMAL": 9,
            "POSITION": 8,
            "TEXCOORD_0": 10,
            "WEIGHTS_0": 18
          },
          "indices": 11,
          "material": 0,
          "mode": 4
        }
      ]
    }
  ],
  "nodes": [
    {
      "children": [
        1
      ],
      "matrix": [
        3.0642504692077637,
        0.0,
        0.0,
        0.0,
        0.0,
        6.804002848265797e-16,
        -3.0642504692077637,
        0.0,
        0.0,
        3.0642504692077637,
        6.804002848265797e-16,
        0.0,
        0.0,
        0.0,
        0.0,
        1.0
      ],
      "name": "Sketchfab_model"
    },
    {
      "children": [
        2
      ],
      "matrix": [
        0.009999999776482582,
        0.0,
        0.0,
        0.0,
        0.0,
        0.0,
        0.009999999776482582,
        0.0,
        0.0,
        -0.009999999776482582,
        0.0,
        0.0,
        0.0,
        0.0,
        0.0,
        1.0
      ],
      "name": "Shotgun.fbx"
    },
    {
      "children": [
        3
      ],
      "name": "Object_2"
    },
    {
      "children": [
        4,
        8
      ],
      "name": "RootNode"
    },
    {
      "children": [
        5,
        6,
        7
      ],
      "name": "GEO_GRP"
    },
    {
      "name": "Main_Body"
    },
    {
      "name": "Trigger"
    },
    {
      "name": "Forend"
    },
    {
      "children": [
        9
      ],
      "name": "JNT_GRP"
    },
    {
      "children": [
        10,
        11,
        12,
        13
      ],
      "name": "Object_9"
    },
    {
      "children": [
        14
      ],
      "name": "_rootJoint"
    },
    {
      "mesh": 0,
      "name": "Object_11",
      "skin": 0
    },
    {
      "mesh": 1,
      "name": "Object_12",
      "skin": 0
    },
    {
      "mesh": 2,
      "name": "Object_13",
      "skin": 0
    },
    {
      "children": [
        15,
        16
      ],
      "name": "Root_Jnt_00",
      "rotation": [
        0.0,
        0.0,
        0.3228565454483032,
        0.946448028087616
      ],
      "translation": [
        -31.897052764892578,
        -5.993893623352051,
        0.0
      ]
    },
    {
      "name": "Trigger_Jnt_01",
      "translation": [
        21.51072883605957,
        3.6059534549713135,
        0.0
      ]
    },
    {
      "name": "Forend_Jnt_02",
      "translation": [
        51.165836334228516,
        4.234042644500732,
        0.0
      ]
    }
  ],
  "samplers": [
    {
      "magFilter": 9729,
      "minFilter": 9987,
      "wrapS": 10497,
      "wrapT": 10497
    }
  ],
  "scene": 0,
  "scenes": [
    {
      "name": "Sketchfab_Scene",
      "nodes": [
        0
      ]
    }
  ],
  "skins": [
    {
      "inverseBindMatrices": 12,
      "joints": [
        10,
        14,
        15,
        16
      ],
      "skeleton": 10
    }
  ],
  "textures": [
    {
      "sampler": 0,
      "source": 0
    }
  ]
}
