{
  "accessors": [
    {
      "bufferView": 2,
      "componentType": 5126,
      "count": 556,
      "max": [
        15.109542846679688,
        6.3503265380859375,
        6.516391277313232
      ],
      "min": [
        -15.109542846679688,
        -6.5259857177734375,
        -6.519414901733398
      ],
      "type": "VEC3"
    },
    {
      "bufferView": 2,
      "byteOffset": 6672,
      "componentType": 5126,
      "count": 556,
      "max": [
        0.9999554753303528,
        0.9970407485961914,
        0.9999598860740662
      ],
      "min": [
        -0.9999557733535767,
        -0.9945506453514099,
        -0.9985815286636353
      ],
      "type": "VEC3"
    },
    {
      "bufferView": 3,
      "componentType": 5126,
      "count": 556,
      "max": [
        0.9999051690101624,
        0.9999940991401672,
        0.998379647731781,
        1.0
      ],
      "min": [
        -0.47999024391174316,
        -0.9999706149101257,
        -0.9971907734870911,
        -1.0
      ],
      "type": "VEC4"
    },
    {
      "bufferView": 1,
      "componentType": 5126,
      "count": 556,
      "max": [
        0.9946739077568054,
        0.7977018356323242
      ],
      "min": [
        0.010702970437705517,
        0.005006700754165649
      ],
      "type": "VEC2"
    },
    {
      "bufferView": 1,
      "byteOffset": 4448,
      "componentType": 5126,
      "count": 556,
      "max": [
        0.9946739077568054,
        0.7977018356323242
      ],
      "min": [
        0.010702970437705517,
        0.005006700754165649
      ],
      "type": "VEC2"
    },
    {
      "bufferView": 1,
      "byteOffset": 8896,
      "componentType": 5126,
      "count": 556,
      "max": [
        0.9946739077568054,
        0.7977018356323242
      ],
      "min": [
        0.010702970437705517,
        0.005006700754165649
      ],
      "type": "VEC2"
    },
    {
      "bufferView": 1,
      "byteOffset": 13344,
      "componentType": 5126,
      "count": 556,
      "max": [
        0.9946739077568054,
        0.7977018356323242
      ],
      "min": [
        0.010702970437705517,
        0.005006700754165649
      ],
      "type": "VEC2"
    },
    {
      "bufferView": 1,
      "byteOffset": 17792,
      "componentType": 5126,
      "count": 556,
      "max": [
        0.9946739077568054,
        0.7977018356323242
      ],
      "min": [
        0.010702970437705517,
        0.005006700754165649
      ],
      "type": "VEC2"
    },
    {
      "bufferView": 1,
      "byteOffset": 22240,
      "componentType": 5126,
      "count": 556,
      "max": [
        0.9946739077568054,
        0.7977018356323242
      ],
      "min": [
        0.010702970437705517,
        0.005006700754165649
      ],
      "type": "VEC2"
    },
    {
      "bufferView": 1,
      "byteOffset": 26688,
      "componentType": 5126,
      "count": 556,
      "max": [
        0.9946739077568054,
        0.7977018356323242
      ],
      "min": [
        0.010702970437705517,
        0.005006700754165649
      ],
      "type": "VEC2"
    },
    {
      "bufferView": 1,
      "byteOffset": 31136,
      "componentType": 5126,
      "count": 556,
      "max": [
        0.9946739077568054,
        0.7977018356323242
      ],
      "min": [
        0.010702970437705517,
        0.005006700754165649
      ],
      "type": "VEC2"
    },
    {
      "bufferView": 1,
      "byteOffset": 35584,
      "componentType": 5126,
      "count": 556,
      "max": [
        0.9946739077568054,
        0.7977018356323242
      ],
      "min": [
        0.010702970437705517,
        0.005006700754165649
      ],
      "type": "VEC2"
    },
    {
      "bufferView": 0,
      "componentType": 5125,
      "count": 2016,
      "type": "SCALAR"
    }
  ],
  "asset": {
    "extras": {
      "author": "Strifey7 (https://sketchfab.com/Strifey7)",
      "license": "CC-BY-4.0 (http://creativecommons.org/licenses/by/4.0/)",
      "source": "https://sketchfab.com/3d-models/post-apocalyptic-arm-guard-low-poly-a777cbbc8aff4c3cb5ed4dec2265fa12",
      "title": "Post Apocalyptic Arm Guard (Low poly)"
    },
    "generator": "Sketchfab-12.66.0",
    "version": "2.0"
  },
  "bufferViews": [
    {
      "buffer": 0,
      "byteLength": 8064,
      "name": "floatBufferViews",
      "target": 34963
    },
    {
      "buffer": 0,
      "byteLength": 40032,
      "byteOffset": 8064,
      "byteStride": 8,
      "name": "floatBufferViews",
      "target": 34962
    },
    {
      "buffer": 0,
      "byteLength": 13344,
      "byteOffset": 48096,
      "byteStride": 12,
      "name": "floatBufferViews",
      "target": 34962
    },
    {
      "buffer": 0,
      "byteLength": 8896,
      "byteOffset": 61440,
      "byteStride": 16,
      "name": "floatBufferViews",
      "target": 34962
    }
  ],
  "buffers": [
    {
      "byteLength": 70336,
      "uri": "scene.bin"
    }
  ],
  "images": [
    {
      "uri": "textures/phong1_baseColor.png"
    },
    {
      "uri": "textures/phong1_normal.png"
    }
  ],
  "materials": [
    {
      "doubleSided": true,
      "name": "phong1",
      "normalTexture": {
        "index": 1
      },
      "pbrMetallicRoughness": {
        "baseColorTexture": {
          "index": 0
        },
        "metallicFactor": 0.0,
        "roughnessFactor": 0.9577051494623774
      }
    }
  ],
  "meshes": [
    {
      "name": "PlateArmguard_phong1_0",
      "primitives": [
        {
          "attributes": {
            "NORMAL": 1,
            "POSITION": 0,
            "TANGENT": 2,
            "TEXCOORD_0": 3,
            "TEXCOORD_1": 4,
            "TEXCOORD_2": 5,
            "TEXCOORD_3": 6,
            "TEXCOORD_4": 7,
            "TEXCOORD_5": 8,
            "TEXCOORD_6": 9,
            "TEXCOORD_7": 10,
            "TEXCOORD_8": 11
          },
          "indices": 12,
          "material": 0,
          "mode": 4
        }
      ]
    }
  ],
  "nodes": [
    {
      "children": [
        1
      ],
      "matrix": [
        1.0,
        0.0,
        0.0,
        0.0,
        0.0,
        2.220446049250313e-16,
        -1.0,
        0.0,
        0.0,
        1.0,
        2.220446049250313e-16,
        0.0,
        0.0,
        0.0,
        0.0,
        1.0
      ],
      "name": "Sketchfab_model"
    },
    {
      "children": [
        2
      ],
      "matrix": [
        1.0,
        0.0,
        0.0,
        0.0,
        0.0,
        0.0,
        1.0,
        0.0,
        0.0,
        -1.0,
        0.0,
        0.0,
        0.0,
        0.0,
        0.0,
        1.0
      ],
      "name": "7a8a604e4d6748fb8de0c8742d9de517.fbx"
    },
    {
      "children": [
        3
      ],
      "name": "RootNode"
    },
    {
      "children": [
        4
      ],
      "name": "RegisterPlateArmguard"
    },
    {
      "children": [
        5
      ],
      "name": "PlateArmguard"
    },
    {
      "mesh": 0,
      "name": "PlateArmguard_phong1_0"
    }
  ],
  "samplers": [
    {
      "magFilter": 9729,
      "minFilter": 9987,
      "wrapS": 10497,
      "wrapT": 10497
    }
  ],
  "scene": 0,
  "scenes": [
    {
      "name": "Sketchfab_Scene",
      "nodes": [
        0
      ]
    }
  ],
  "textures": [
    {
      "sampler": 0,
      "source": 0
    },
    {
      "sampler": 0,
      "source": 1
    }
  ]
}
